<svg width="302" height="79" viewBox="0 0 302 79" fill="none" xmlns="http://www.w3.org/2000/svg">
<path d="M39.3377 35.934C39.3377 34.5117 39.2921 33.1654 39.2921 31.9865C39.2921 24.4871 35.6945 20.7374 32.675 18.9119C29.5899 17.1998 26.1098 16.3265 22.5819 16.3792C15.0977 16.3792 9.5834 18.486 6.17595 22.6312C4.21125 25.088 3.02476 28.0754 2.7685 31.2107C2.76089 31.2917 2.76089 31.3731 2.7685 31.4541C2.86213 32.4559 3.3298 33.3856 4.0783 34.058C4.8268 34.7304 5.80118 35.096 6.80724 35.0821C7.75786 35.179 8.70939 34.9071 9.46525 34.3225C10.2211 33.7379 10.7236 32.8853 10.8688 31.9409C11.7359 27.9097 13.6602 24.1752 21.8822 24.1752C26.2404 24.1752 29.085 25.0727 30.5757 26.921C31.0869 27.4731 31.4753 28.1274 31.7152 28.8406C31.9552 29.5538 32.0412 30.3097 31.9676 31.0586C31.9676 32.4277 31.4504 34.101 27.4041 34.9908C24.78 35.5613 22.0191 35.8807 19.3494 36.185L18.0716 36.3371C2.93583 38.1245 0.654053 46.1107 0.654053 50.7047C0.654053 59.0407 10.6786 63.7564 17.9195 63.9846C18.277 63.9846 18.7333 63.9846 19.2581 63.9846C21.9967 64.0446 24.7204 63.5666 27.2748 62.5775L27.4953 62.4862C29.9987 61.5323 32.2665 60.0489 34.1437 58.1376C36.0208 56.2263 37.4631 53.9322 38.3718 51.412C39.5507 48.2404 39.4442 41.6993 39.3377 35.934ZM31.6406 44.4146C31.6406 53.9676 22.4678 56.0592 18.9311 56.0592C14.1089 56.0592 8.91408 53.496 8.91408 49.3432C8.91408 44.8709 12.9376 43.4638 21.3954 42.1708C23.5935 41.8362 27.1759 41.2049 29.5489 40.7485C30.2675 40.5986 30.9685 40.3743 31.6406 40.0792V44.4146Z" fill="#1E2431"/>
<path d="M46.6549 21.0568C46.6549 19.1933 47.5828 18.2578 49.4539 18.2578H51.4086C53.272 18.2578 54.2076 19.1933 54.2076 20.6384V23.1788C54.207 23.9425 54.1511 24.705 54.0402 25.4606H54.2076C54.2076 25.4606 57.8584 17.2234 68.6588 17.2234C80.2046 17.2234 87.5063 26.3885 87.5063 39.7217C87.5063 53.4123 79.269 62.2124 68.0655 62.2124C65.3593 62.2953 62.6827 61.6289 60.3312 60.2867C57.9798 58.9446 56.0448 56.9788 54.74 54.6065H54.5726C54.7478 55.8435 54.8317 57.0917 54.8236 58.341V75.3934C54.8236 77.2645 53.8881 78.2 52.1083 78.2H49.4539C47.5828 78.2 46.6549 77.2645 46.6549 75.3934V21.0568ZM66.7725 55.1008C73.5646 55.1008 79.1626 49.5789 79.1626 39.8206C79.1626 30.4805 74.1579 24.4566 66.9931 24.4566C60.5737 24.4338 54.6563 28.9517 54.6563 39.9042C54.6563 47.5482 58.8776 55.1008 66.7725 55.1008Z" fill="#1E2431"/>
<path d="M94.9674 21.0568C94.9674 19.1933 95.8953 18.2578 97.7664 18.2578H99.7211C101.585 18.2578 102.52 19.1933 102.52 20.6384V23.1788C102.52 23.9425 102.464 24.705 102.353 25.4606H102.52C102.52 25.4606 106.171 17.2234 116.971 17.2234C128.517 17.2234 135.819 26.3885 135.819 39.7217C135.819 53.4123 127.589 62.2124 116.378 62.2124C113.672 62.2953 110.995 61.6289 108.644 60.2867C106.292 58.9446 104.357 56.9788 103.052 54.6065H102.885C103.06 55.8435 103.144 57.0917 103.136 58.341V75.3934C103.136 77.2645 102.201 78.2 100.421 78.2H97.7892C95.9181 78.2 94.9902 77.2645 94.9902 75.3934L94.9674 21.0568ZM115.085 55.1008C121.877 55.1008 127.475 49.5789 127.475 39.8206C127.475 30.4805 122.47 24.4566 115.306 24.4566C108.856 24.4566 102.916 28.9517 102.916 39.9042C102.954 47.5482 107.198 55.1008 115.093 55.1008H115.085Z" fill="#1E2431"/>
<path d="M144.824 25.3921H142.124C141.746 25.433 141.363 25.3885 141.004 25.2619C140.645 25.1353 140.318 24.9298 140.049 24.6606C139.78 24.3913 139.575 24.0652 139.448 23.7061C139.321 23.347 139.277 22.9641 139.318 22.5856V21.4827C139.278 21.1048 139.323 20.7227 139.451 20.3646C139.578 20.0065 139.783 19.6813 140.053 19.413C140.322 19.1446 140.647 18.9398 141.006 18.8137C141.364 18.6875 141.746 18.6431 142.124 18.6837H144.84V16.6453C144.824 3.06118 155.944 0.855469 160.378 0.855469H161.398C163.246 0.855469 164.181 1.87466 164.181 3.65445V5.2669C164.181 7.13795 163.17 7.89855 161.215 8.07348C158.074 8.24081 153.062 9.0014 153.062 16.9876V18.6837H160.447C160.825 18.6431 161.207 18.6875 161.565 18.8137C161.924 18.9398 162.25 19.1446 162.519 19.413C162.788 19.6813 162.993 20.0065 163.121 20.3646C163.248 20.7227 163.293 21.1048 163.253 21.4827V22.5856C163.294 22.9641 163.25 23.347 163.123 23.7061C162.997 24.0652 162.791 24.3913 162.522 24.6606C162.253 24.9298 161.927 25.1353 161.567 25.2619C161.208 25.3885 160.825 25.433 160.447 25.3921H153.062V58.4094C153.062 60.2805 152.134 61.216 150.263 61.216H147.631C145.851 61.216 144.832 60.2805 144.832 58.4094L144.824 25.3921Z" fill="#1E2431"/>
<path d="M187.623 17.2386C200.447 17.2386 210.798 26.6623 210.798 39.6532C210.798 52.6441 200.447 62.2276 187.623 62.2276C174.8 62.2276 164.539 52.7202 164.539 39.6456C164.539 26.5711 174.83 17.2386 187.623 17.2386ZM187.623 55.1009C195.777 55.1009 202.394 48.651 202.394 39.6532C202.394 30.6554 195.777 24.373 187.623 24.373C179.47 24.373 172.853 30.7391 172.853 39.6456C172.853 48.5522 179.561 55.1009 187.623 55.1009Z" fill="#1E2431"/>
<path d="M217.947 4.08044C217.947 2.21953 218.883 1.28653 220.754 1.28146H223.385C225.165 1.28146 226.184 2.21699 226.184 4.08044V48.4762C226.184 53.3211 228.307 53.9981 230.086 54.1654C230.396 54.1737 230.701 54.245 230.982 54.375C231.264 54.5051 231.516 54.6911 231.723 54.9217C231.93 55.1523 232.088 55.4226 232.187 55.7163C232.286 56.01 232.325 56.3208 232.3 56.6297V58.6605C232.3 60.4403 231.539 61.5431 229.409 61.5431C224.846 61.5431 217.947 60.2729 217.947 49.4878V4.08044Z" fill="#1E2431"/>
<path d="M239.7 21.0568C239.7 19.1933 240.719 18.2578 242.499 18.2578H245.131C247.002 18.2578 247.93 19.1933 247.93 21.0568V58.4094C247.93 60.2805 247.002 61.216 245.131 61.216H242.522C240.742 61.216 239.723 60.2805 239.723 58.4094L239.7 21.0568Z" fill="#1E2431"/>
<path d="M278.171 17.2386C290.994 17.2386 301.346 26.6623 301.346 39.6532C301.346 52.6441 290.994 62.2276 278.171 62.2276C265.347 62.2276 255.079 52.7202 255.079 39.6456C255.079 26.5711 265.34 17.2386 278.171 17.2386ZM278.171 55.1009C286.324 55.1009 292.941 48.651 292.941 39.6532C292.941 30.6554 286.324 24.373 278.171 24.373C270.017 24.373 263.4 30.7391 263.4 39.6456C263.4 48.5522 270.108 55.1009 278.171 55.1009Z" fill="#1E2431"/>
</svg>
