<svg version="1.2" xmlns="http://www.w3.org/2000/svg" viewBox="0 0 1580 278">
  <path fill-rule="evenodd" d="M29.5 219 .2 126.9c-.5-2 .1-4.1 1.6-5.5l44.9-35.8c1.4-1.2 3.6-.9 4.7.5q0 .1.1.1L84.8 133c1.1 1.8 1.1 3.9.1 5.7l-52.3 80.7c-1.1 1.6-2.4 1.4-3.1-.4m147 58.1-95.1-.1c-2-.1-3.8-1.3-4.6-3.2l-19.6-54.5c-.7-1.8.3-3.8 2.1-4.5l54-17.8c2-.5 4 .2 5.3 1.7l59.2 75.6c1.2 1.5.6 2.7-1.3 2.8m99.7-124.4-29.4 92.1c-.7 1.9-2.4 3.2-4.5 3.4l-56.9 2.2c-2 0-3.5-1.5-3.6-3.5l.1-57.7c.1-2.1 1.3-3.9 3.2-4.7l88.9-34c1.7-.6 2.8.4 2.2 2.2m-85.4-135 76.9 57c1.6 1.3 2.3 3.3 1.9 5.3L254 135.9v.1c-.6 1.8-2.5 2.8-4.3 2.2l-53.9-17.9c-1.9-.7-3.3-2.5-3.4-4.5l-4.3-96.6c0-1.9 1.2-2.6 2.7-1.5m-152.4 41 76.9-56.9c1.7-1.1 3.9-1.2 5.6-.1L168.3 34c1.5 1.1 1.9 3.3.8 4.9l-33.4 46.7c-1.3 1.6-3.3 2.3-5.3 1.9L38.9 61.7c-1.8-.5-2.1-1.9-.5-3m429.9 118.7h7.2l-3.8 35.6c-16.4 7.6-34.3 11.5-52.5 11.3-45 0-71.5-33.5-71.5-70.7 0-47 32.9-76.4 73.3-76.4 24.4 0 38.9 6.5 47.4 11.9l1.1 30.8h-6.9c-8.1-23-22.1-31.7-42.9-31.7-36.2 0-49.3 26.4-49.3 57.7 0 34.1 15.9 66.7 52.6 66.7 26.9 0 37.2-12.2 45.3-35.2m68.5 47.3c-27.6 0-49.9-22.6-49.9-50.7 0-28 22.3-50.6 49.9-50.6 27.7 0 50 22.6 50 50.6 0 28.1-22.3 50.7-50 50.7m30.8-46.2c0-23.8-12.7-43.7-34.4-43.7-18 0-27.1 14.7-27.1 34.8 0 23.8 12.7 43.7 34.4 43.7 18.1 0 27.1-14.8 27.1-34.8m32 33.5-1.4-34.6h6.7c5.6 19.2 17.9 36.3 39.2 36.3 19.9 0 33.3-9.5 33.3-25.4 0-14-10.8-20-25.8-26.1l-19.8-7.9c-17.3-7-32.2-15.1-32.2-38.3 0-20.1 19.6-38.7 47.6-38.7 16.3 0 32.8 4.8 40.4 12.2v30.4h-5.3c-4.7-19.2-15.3-32.2-36.3-32.2-16.8 0-29.3 9.3-29.3 24 0 12.2 8.3 17.8 22.2 23.3l21.2 8.6c20 8.1 34.5 16.2 34.5 40 0 26.3-24 41-53.3 41-17.4 0-32.6-5-41.7-12.6m133.2-88.3h26.3v11.5h-26.3v57.2c0 13.2 5.3 19.1 16.3 19.1 4.2.1 8.3-.7 12.2-2.3.8 2.1 1.7 4 2.5 5.8-6.2 6.3-14.7 9.7-23.5 9.7-13.8 0-26.4-7.2-26.4-26.2v-63.2h-15v-6.4c11.3-5.9 18.6-12.8 27.9-24.3h6zm113 75.5c0 8.1 3.6 12.5 9 12.5q3.1-.1 6.1-.6c.6 1.9 1.9 4.9 2.4 6.3-4.5 4.6-10.7 7.2-17.1 7.2-9.4 0-14.1-6.6-17-16.7-6.7 7.5-17 16.7-33.8 16.7-17.9 0-27.5-10.8-27.5-25.2 0-17.1 11.1-21.2 25-25.2l34-10.6v-3.8c0-15.1-6-26.9-21.5-26.9-10.1 0-14.6 4.2-14.6 13.6q.3 4.5 1.1 8.9l-14.9 1.8c-2.6-2.6-4.1-6.2-3.9-9.9 0-15.2 15.8-24 36.1-24 22.2 0 36.6 9.4 36.6 35.4zm-18.9.7v-27.2l-30.7 10.1c-6.4 2-9.5 5.7-9.5 12.7 0 10.5 5.8 15.9 15.8 15.9 10.6 0 16.9-4.8 24.4-11.5m73.8-48.2c8.5-15.3 16.9-28.3 30.1-28.3 4.4 0 5.4 1 9.2 2.5v16.9h-8c-11.6 0-18.4 3-29.7 17.3v44.3c0 9.2 3.7 9.7 15 11.2v7.8h-48.9v-7.8c7.5-1.1 15-2 15-10.5v-61.7l-15-6.5v-4.4l26.9-8.8h6.3zm140.7-74.4c24.4 0 39 6.4 47.4 11.7l1.1 30.8h-6.8c-8.2-23-22.1-31.7-42.9-31.7-36.2 0-49.4 26.5-49.4 57.8 0 34.1 16.9 67 52.6 67 16.4 0 24.6-3.9 32.2-10.9v-25.4c0-12.4-11.3-14.3-22.6-15v-7.3h56.5v7.3c-7.5 1-15.1 2.6-15.1 15v33.3c-16.4 9.9-35.2 15-54.3 14.7-45 0-71.8-33.7-71.8-70.9 0-47 33.3-76.4 73.1-76.4m106.9 74.4c8.5-15.3 17.4-28.3 30.6-28.3 3.4 0 6.7.9 9.7 2.5v16.9h-9c-11.6 0-17.4 3-32.4 17.3v44.3c0 9.2 7.5 9.7 18.8 11.2v7.8h-49v-7.8c7.5-1.1 11.3-2 11.3-10.5v-61.7l-11.3-6.5v-4.4l25.8-8.8h6.4zm90.1 72.9c-27.7 0-50-22.6-50-50.6 0-28.1 22.3-50.7 50-50.7 27.6 0 49.9 22.6 49.9 50.7 0 28-22.3 50.6-49.9 50.6m30.7-46.2c0-23.8-12.7-43.7-34.4-43.7-18.1 0-27.1 14.8-27.1 34.8 0 23.8 12.7 43.7 34.4 43.7 18.1 0 27.1-14.8 27.1-34.8m103.4 27.5c-7.7 9.6-19.1 18.4-33.4 18.4-17.7 0-29.9-8.4-29.9-29.9v-50.1c0-6.7-3-8.5-12-9.6l-3.1-.4V127l28.9-3.4h4.7l.3 18.8v49.4c0 13.6 7.3 18.6 18 18.6 11 0 19.7-5.9 27.2-12.2v-53.9c0-6.7-2.9-8.5-12-9.6l-3.1-.4V127l28.8-3.4h4.7l.4 18.8v59.3c0 6.3 1.9 7.6 10.4 8.5l4.7.6v7.3l-32.7 5.3h-2.7zm68.4 11.3v32c0 8.5 3.8 9.4 15.1 10.5v5.8h-49v-5.8c7.6-1.1 15.1-2 15.1-10.5V143.3l-15.1-6.5v-4.4l27.8-8.8h6.3l-.9 16.9c8.3-10.7 21-17.1 34.6-17.2 27.9 0 42.5 20.6 42.5 46 0 34.1-23.2 55.3-51.7 55.3-10.9 0-20.9-3-24.7-7.4m57.8-40.2c0-19.1-7.1-39.8-30.4-39.8-11.1 0-23.6 5.5-27.4 12.2v41.4c0 17.5 12.9 23.2 26.6 23.2 19 0 31.2-13.2 31.2-37m55.3-53.8v2.9h-8v21.5h-3.3v-21.5h-8.1v-2.9zm2.9 0h4.7l6.8 20.6 6.9-20.6h4.6v24.4h-3.1v-14.4q-.1-.8 0-2.5V127l-6.8 20.6h-3.2l-6.9-20.6v3.5q.1 1.8.1 2.7v14.4h-3.1z" style="fill:#000"/>
</svg>
