<svg xmlns="http://www.w3.org/2000/svg" width="123" height="28" fill="none"><g clip-path="url(#a)"><path fill="#0281FF" fill-rule="evenodd" d="M27.145 14c0 7.732-6.077 14-13.573 14C6.077 28 0 21.732 0 14S6.077 0 13.572 0c7.496 0 13.573 6.268 13.573 14M6.17 16.023h3.604c.107 0 .186.104.16.211l-1.862 7.794c-.04.166.155.282.274.164l12.557-12.466c.107-.106.034-.293-.114-.293h-4.408c-.137 0-.214-.162-.13-.274l4.127-5.522c.083-.112.006-.274-.131-.274H11.8L6.028 15.769c-.063.113.016.254.143.254" clip-rule="evenodd"/><path fill="#000" d="M38.016 5.602v15.843h-2.778V5.602zM43.612 14.481v6.963h-2.71V9.56h2.59v2.02h.135a3.37 3.37 0 0 1 1.265-1.587q.876-.588 2.163-.588 1.19 0 2.074.526.891.526 1.377 1.524.495.999.487 2.422v7.566h-2.71V14.31q0-1.191-.599-1.864-.59-.674-1.64-.673-.71 0-1.264.324a2.2 2.2 0 0 0-.861.921q-.307.604-.307 1.462M62.835 12.702l-2.47.278q-.105-.387-.367-.727-.255-.34-.689-.55-.435-.207-1.063-.208-.846 0-1.422.38-.57.379-.561.982-.008.518.366.843.382.324 1.258.534l1.961.433q1.632.364 2.425 1.153.801.789.809 2.065-.008 1.122-.636 1.98-.622.852-1.73 1.331-1.108.48-2.545.48-2.11 0-3.398-.913-1.288-.92-1.535-2.56l2.643-.264q.18.805.763 1.215.585.41 1.52.41.966 0 1.55-.41.59-.41.59-1.014 0-.51-.381-.843-.375-.333-1.168-.51l-1.961-.426q-1.654-.356-2.448-1.199-.793-.85-.786-2.15-.008-1.099.576-1.904.592-.812 1.64-1.253 1.055-.45 2.433-.449 2.021 0 3.181.89 1.168.89 1.445 2.406M71.06 9.562v2.166h-6.61V9.562zM66.08 6.715h2.71V17.87q0 .564.165.866.171.294.449.402.276.11.614.109.255 0 .464-.04.216-.037.33-.069l.456 2.19a6 6 0 0 1-.622.17 5 5 0 0 1-.973.108q-1.017.03-1.834-.317a2.88 2.88 0 0 1-1.295-1.099q-.471-.743-.464-1.856zM76.633 21.684q-1.093 0-1.969-.402a3.24 3.24 0 0 1-1.377-1.207q-.502-.798-.502-1.965 0-1.005.36-1.664.359-.657.98-1.052.62-.394 1.4-.596a11 11 0 0 1 1.624-.301q1.01-.108 1.64-.194.628-.092.913-.278.292-.195.292-.596v-.046q0-.874-.502-1.354-.501-.48-1.445-.48-.995 0-1.579.449-.576.449-.778 1.06l-2.53-.371q.298-1.084.987-1.81.69-.735 1.685-1.1.996-.37 2.2-.37.832 0 1.655.2.823.201 1.505.666.68.457 1.093 1.245.419.79.419 1.973v7.953h-2.605v-1.632h-.09a3.4 3.4 0 0 1-.696.928 3.3 3.3 0 0 1-1.116.688q-.666.256-1.564.256m.703-2.058q.816 0 1.415-.333a2.42 2.42 0 0 0 1.25-2.112v-1.4q-.128.109-.434.201-.3.093-.674.163-.374.069-.74.123l-.637.093q-.606.085-1.085.279-.48.194-.756.541-.277.34-.277.882 0 .774.546 1.168.546.395 1.392.395M88.14 14.481v6.963h-2.71V9.56h2.59v2.02h.134a3.38 3.38 0 0 1 1.265-1.587q.877-.588 2.164-.588 1.19 0 2.073.526.89.527 1.378 1.524.493.999.486 2.422v7.566h-2.71V14.31q0-1.192-.598-1.864-.592-.674-1.64-.673-.711 0-1.265.325a2.2 2.2 0 0 0-.86.92q-.308.604-.308 1.462M104.016 9.562v2.166h-6.61V9.562zm-4.978-2.847h2.71V17.87q0 .564.164.866.173.294.45.402.277.11.614.109.254 0 .464-.04.217-.037.329-.069l.457 2.19a6 6 0 0 1-.621.17 5 5 0 0 1-.973.108q-1.019.03-1.834-.317a2.87 2.87 0 0 1-1.296-1.099q-.471-.743-.464-1.856zM109.24 5.602v15.843h-2.711V5.602zM113.711 25.902q-.553 0-1.026-.093a3.7 3.7 0 0 1-.741-.201l.629-2.182q.591.178 1.055.17a1.27 1.27 0 0 0 .816-.302q.36-.285.607-.959l.232-.642-4.17-12.13h2.875l2.649 8.974h.121l2.657-8.974h2.882l-4.604 13.321a5.4 5.4 0 0 1-.853 1.617q-.532.681-1.303 1.037-.764.363-1.826.363"/></g><defs><clipPath id="a"><path fill="#fff" d="M0 0h123v28H0z"/></clipPath></defs></svg>