<svg  width="193" height="25" viewBox="0 0 193 25" fill="none" xmlns="http://www.w3.org/2000/svg" aria-labelledby="js-logo-green-title">
<title id="js-logo-green-title">Logo of Juniper Square</title>
<path d="M129.229 8.22593C129.229 7.69008 129.238 7.27357 129.226 6.85949C129.217 6.51849 129.352 6.38453 129.687 6.39183C130.409 6.40888 131.133 6.40888 131.858 6.39183C132.197 6.38453 132.349 6.48683 132.346 6.87654C132.337 12.7539 132.337 18.6314 132.346 24.5088C132.346 24.8595 132.22 24.9935 131.898 24.991C131.173 24.9862 130.451 24.9764 129.726 24.9959C129.352 25.0056 129.217 24.8571 129.219 24.4649C129.233 22.8744 129.226 21.2839 129.222 19.6933C129.222 19.5033 129.201 19.3134 129.184 19.0625C128.827 19.3937 128.548 19.6836 128.24 19.9345C127.282 20.709 126.172 21.0086 124.973 21.0646C123.182 21.145 121.584 20.6335 120.216 19.4205C118.975 18.3196 118.234 16.919 117.961 15.236C117.657 13.3726 117.795 11.5824 118.634 9.88223C119.475 8.17966 120.775 7.02999 122.519 6.45273C124.512 5.79265 126.415 5.98994 128.158 7.25164C128.513 7.50009 128.808 7.83378 129.229 8.22593ZM129.168 13.5918C129.194 12.318 128.785 11.1951 127.861 10.3036C126.16 8.66437 122.897 8.92499 121.665 11.1147C121.256 11.8406 121.058 12.5981 121.02 13.4335C120.927 15.4795 121.829 17.2406 123.914 17.8349C126.531 18.5778 129.28 16.6779 129.168 13.5918Z" fill="#00B070"/>
<path d="M56.5813 19.0332C56.572 19.2232 56.558 19.3985 56.558 19.5739C56.5556 21.1815 56.5416 22.7915 56.5673 24.3991C56.5743 24.8692 56.4224 25.0178 55.9853 24.9983C55.3099 24.969 54.6344 24.9788 53.959 24.9958C53.6201 25.0031 53.4775 24.9057 53.4775 24.516C53.4892 18.6362 53.4869 12.7563 53.4775 6.87647C53.4775 6.50137 53.5897 6.37714 53.9473 6.38932C54.6555 6.41368 55.3636 6.41855 56.0695 6.38689C56.4668 6.36984 56.5767 6.54034 56.5603 6.91788C56.5416 7.34656 56.5556 7.77525 56.5556 8.27214C57.002 7.86537 57.3549 7.48784 57.7593 7.18581C58.9886 6.26997 60.3839 5.96551 61.8657 6.12626C63.4994 6.30164 64.9321 6.98364 66.061 8.23804C67.2506 9.56307 67.8863 11.156 67.9775 12.978C68.0616 14.6294 67.8279 16.2004 67.0099 17.6497C66.0586 19.3376 64.661 20.4215 62.8497 20.8673C61.1459 21.2862 59.4678 21.1766 57.9369 20.1804C57.4718 19.8784 57.0745 19.457 56.5813 19.0332ZM56.6211 13.6356C56.6024 16.1444 58.3529 17.9956 60.807 17.9809C63.0577 17.9688 64.8386 16.293 64.8456 13.7038C64.8526 11.1536 63.2189 9.37065 60.9636 9.25374C58.4674 9.12464 56.5883 11.1122 56.6211 13.6356Z" fill="#00B070"/>
<path d="M165.522 20.7356C164.531 20.7356 163.557 20.7356 162.526 20.7356C162.526 20.1412 162.526 19.5664 162.526 18.8406C161.876 19.7077 161.159 20.2387 160.315 20.5797C158.162 21.4492 156.078 21.2178 154.147 19.9634C151.962 18.5434 150.971 16.3829 150.922 13.7304C150.873 11.0365 151.81 8.81999 153.986 7.30741C156.346 5.66816 159.572 5.57561 161.881 7.55828C162.086 7.73609 162.243 7.97479 162.507 8.28413C162.507 7.73609 162.524 7.28061 162.503 6.82757C162.486 6.49874 162.598 6.38427 162.914 6.39157C163.669 6.40862 164.426 6.40132 165.183 6.39401C165.429 6.39157 165.571 6.44516 165.569 6.75206C165.557 11.3751 165.555 16.0005 165.548 20.6235C165.553 20.6406 165.543 20.6576 165.522 20.7356ZM154.103 13.4649C154.079 16.0078 155.82 17.9808 158.228 17.9588C160.621 17.9369 162.404 16.3634 162.488 13.6013C162.563 11.2143 160.74 9.36559 158.483 9.25599C155.865 9.12933 154.07 11.1437 154.103 13.4649Z" fill="#00B070"/>
<path d="M104.197 16.5291C105.106 16.1101 105.976 15.6961 106.859 15.321C106.936 15.2869 107.187 15.4842 107.238 15.6206C107.584 16.5778 108.178 17.2696 109.15 17.4912C110.019 17.6885 110.907 17.7275 111.725 17.2501C112.917 16.5535 112.945 14.7754 111.73 14.0861C111.008 13.6744 110.206 13.4089 109.421 13.1337C108.203 12.7074 106.995 12.2763 105.997 11.3897C104.693 10.2279 104.272 8.71773 104.405 6.98836C104.503 5.72179 104.959 4.64032 105.857 3.76103C106.605 3.03031 107.509 2.63085 108.484 2.39215C110.05 2.01218 111.585 2.16806 113.046 2.83789C114.493 3.50041 115.397 4.70365 115.897 6.24547C115.986 6.51827 115.986 6.74723 115.642 6.88119C114.881 7.17835 114.133 7.51448 113.382 7.8433C113.055 7.98701 112.978 7.71908 112.91 7.51692C112.609 6.63275 112.039 6.02382 111.181 5.78512C110.267 5.5318 109.332 5.50014 108.474 6.02138C107.392 6.67659 107.306 8.33532 108.393 8.97348C109.313 9.51177 110.342 9.86252 111.342 10.2449C112.368 10.6346 113.38 11.039 114.235 11.7697C115.446 12.8024 115.907 14.1786 115.874 15.7594C115.832 17.7664 115.054 19.3594 113.294 20.2825C111.994 20.9645 110.601 21.1911 109.136 20.9597C108.154 20.8038 107.236 20.5237 106.406 19.9464C105.378 19.2327 104.714 18.2414 104.34 17.026C104.302 16.8774 104.26 16.7361 104.197 16.5291Z" fill="#00B070"/>
<path d="M192.97 14.851C192.694 14.851 192.488 14.851 192.28 14.851C189.078 14.851 185.879 14.8559 182.677 14.8461C182.102 14.8437 182.055 14.8875 182.214 15.477C182.777 17.5668 185.011 18.4705 186.811 18.2439C188.005 18.0929 189.027 17.618 189.749 16.5633C189.814 16.4659 189.95 16.3636 190.055 16.3636C190.889 16.3538 191.726 16.3684 192.561 16.3782C192.6 16.3782 192.638 16.4293 192.712 16.4829C192.039 18.3877 190.92 19.8954 189.041 20.5676C186.383 21.5151 183.822 21.2959 181.536 19.4448C180.316 18.4583 179.575 17.1162 179.234 15.5598C178.879 13.9352 178.911 12.313 179.472 10.7322C180.26 8.50836 181.767 7.05911 183.939 6.41607C186.143 5.76574 188.258 6.01418 190.188 7.38306C191.457 8.28184 192.24 9.54841 192.696 11.0586C193.058 12.2764 193.016 13.5211 192.97 14.851ZM189.941 12.2813C189.908 11.6139 189.679 11.0659 189.359 10.5714C188.65 9.47291 187.606 9.01255 186.372 8.93705C184.607 8.82744 182.747 9.7043 182.228 11.6821C182.064 12.3057 182.05 12.3251 182.677 12.3251C184.913 12.3276 187.148 12.3276 189.384 12.3251C189.555 12.3251 189.726 12.2983 189.941 12.2813Z" fill="#00B070"/>
<path d="M84.1022 14.7241C80.4562 14.7241 76.8616 14.7241 73.232 14.7241C73.4259 16.0881 74.085 17.0575 75.1742 17.7054C76.712 18.6212 78.9253 18.4191 80.2973 17.2621C80.3838 17.189 80.4889 17.116 80.538 17.0185C80.8535 16.3877 81.37 16.2756 81.9917 16.3341C82.4709 16.3779 82.957 16.3438 83.4385 16.3438C83.754 16.3438 83.8872 16.4413 83.7423 16.7993C82.8588 18.9964 81.3817 20.4651 79.0749 20.8792C78.3855 21.0034 77.6726 21.0594 76.9738 21.0497C73.6597 20.9936 71.0467 18.7747 70.3409 15.411C69.8033 12.8486 70.2334 10.4591 71.9372 8.42531C72.7482 7.46076 73.7742 6.82016 74.9475 6.45724C77.114 5.78742 79.2058 5.95305 81.1317 7.23911C83.0201 8.50081 83.9409 10.3812 84.0952 12.683C84.1396 13.3455 84.1022 14.0104 84.1022 14.7241ZM81.0171 12.3639C81.0475 10.7271 79.6312 8.92463 77.273 8.91976C74.8119 8.91489 73.3675 10.6589 73.2974 12.3639C75.8613 12.3639 78.4229 12.3639 81.0171 12.3639Z" fill="#00B070"/>
<path d="M8.10777 5.65856C7.91378 5.64638 7.72681 5.62446 7.5375 5.62446C6.34787 5.62203 5.15591 5.60985 3.96628 5.62933C3.53624 5.63664 3.3516 5.49781 3.36562 5.02771C3.39133 4.25802 3.38198 3.4859 3.36796 2.71621C3.36095 2.34598 3.4521 2.18766 3.85643 2.19009C6.23569 2.20958 8.61728 2.20714 10.9965 2.19253C11.3541 2.19009 11.4663 2.30457 11.4663 2.67967C11.4546 6.71567 11.4967 10.7517 11.4429 14.7877C11.4172 16.6315 10.9475 18.356 9.53813 19.6469C8.84632 20.2802 8.03532 20.6529 7.14952 20.8624C5.79629 21.1839 4.48513 21.0572 3.19501 20.5116C1.83009 19.9368 0.962996 18.8772 0.416095 17.4986C-0.0232961 16.3904 -0.0419936 15.2237 0.0351335 14.0058C0.984031 14.0058 1.92358 14.0058 2.85845 14.0058C2.97298 14.5855 3.0314 15.1555 3.20436 15.6864C3.67179 17.1186 4.59498 17.7763 6.28477 17.5668C7.31079 17.4402 8.12413 16.3733 8.13114 15.0897C8.14984 12.0426 8.14049 8.99307 8.14283 5.94598C8.14283 5.86804 8.12413 5.78766 8.10777 5.65856Z" fill="#00B070"/>
<path d="M145.118 20.7624C145.118 20.19 145.118 19.7126 145.118 19.0915C144.281 20.6966 142.984 21.0522 141.491 21.0693C140.233 21.0815 139.039 20.9402 137.954 20.1924C136.746 19.357 136.162 18.1342 135.893 16.7191C135.785 16.1516 135.764 15.5572 135.762 14.9751C135.748 12.3129 135.764 9.64818 135.748 6.98594C135.746 6.52802 135.87 6.36483 136.318 6.38918C136.991 6.42572 137.669 6.41841 138.345 6.39162C138.728 6.37701 138.833 6.51341 138.831 6.90799C138.814 9.52152 138.789 12.1351 138.838 14.7462C138.861 15.9738 139.228 17.1064 140.429 17.6617C141.888 18.3364 143.26 17.9272 144.129 16.4755C144.865 15.2455 145.076 13.8522 145.118 12.4468C145.172 10.6225 145.151 8.79568 145.12 6.96889C145.113 6.48418 145.272 6.37213 145.695 6.39162C146.371 6.42085 147.046 6.41354 147.722 6.39406C148.07 6.38431 148.205 6.49149 148.205 6.87389C148.196 11.3629 148.201 15.852 148.187 20.341C148.187 20.4823 148.021 20.7429 147.927 20.7478C147.018 20.7746 146.104 20.7624 145.118 20.7624Z" fill="#00B070"/>
<path d="M24.2437 19.3182C23.844 20.083 23.2457 20.6213 22.4627 20.8138C20.6023 21.2741 18.77 21.2936 17.1036 20.1147C16.0074 19.3402 15.4208 18.1905 15.1964 16.8752C15.0492 16.0105 15.0305 15.1166 15.0211 14.2373C15.0001 11.8576 15.0118 9.48035 15.0141 7.10064C15.0141 6.39916 15.0165 6.39916 15.7083 6.39916C16.3043 6.39916 16.9026 6.43569 17.4939 6.38698C18.0057 6.34557 18.1109 6.55991 18.1062 7.04706C18.0875 9.66059 18.0291 12.2766 18.1156 14.8877C18.195 17.2674 19.8077 18.3732 21.8738 17.8276C22.6965 17.6108 23.2013 16.8752 23.5869 16.0958C24.1876 14.8779 24.3489 13.548 24.3886 12.2157C24.44 10.4595 24.3979 8.69848 24.3746 6.93989C24.3699 6.53068 24.4821 6.37236 24.8911 6.38941C25.5829 6.41864 26.2747 6.41621 26.9665 6.38941C27.3475 6.3748 27.4737 6.5112 27.469 6.90579C27.4526 8.21133 27.462 9.51932 27.462 10.8273C27.462 13.9426 27.455 17.0603 27.469 20.1756C27.4713 20.6213 27.3708 20.8065 26.9081 20.7772C26.235 20.7383 25.5572 20.7431 24.8817 20.7748C24.4681 20.7943 24.3372 20.6335 24.3746 20.2268C24.4003 19.9491 24.3792 19.6641 24.3792 19.384C24.3348 19.3621 24.2904 19.3402 24.2437 19.3182Z" fill="#00B070"/>
<path d="M34.0711 20.7625C33.0965 20.7625 32.185 20.7698 31.2712 20.7503C31.1824 20.7479 31.0679 20.5896 31.0164 20.4775C30.9744 20.3801 31.0047 20.2461 31.0047 20.1292C31.0047 15.7741 31.0047 11.4215 31.0047 7.06642C31.0047 6.39904 31.0071 6.3966 31.6335 6.3966C32.3253 6.3966 33.0171 6.40391 33.7089 6.39416C33.9753 6.38929 34.0852 6.48672 34.0735 6.77414C34.0571 7.2418 34.0688 7.70946 34.0688 8.30864C34.3259 7.992 34.4895 7.73625 34.7022 7.53896C35.99 6.34058 37.5021 5.91189 39.2036 6.16034C41.9662 6.56467 43.3404 8.77143 43.4246 11.4069C43.5157 14.3346 43.4783 17.2648 43.5134 20.195C43.518 20.6212 43.4105 20.799 42.9711 20.7771C42.2817 20.743 41.5875 20.7479 40.8981 20.7747C40.4914 20.7893 40.3815 20.631 40.3839 20.2218C40.3956 17.5766 40.4517 14.9265 40.3605 12.2837C40.2834 10.0258 38.8483 8.9468 36.7051 9.35357C34.9616 9.68483 34.0922 11.0464 34.0735 12.8391C34.0478 15.3016 34.0665 17.7617 34.0665 20.2242C34.0711 20.3728 34.0711 20.5238 34.0711 20.7625Z" fill="#00B070"/>
<path d="M95.797 9.6044C94.799 9.20982 93.9132 8.98573 92.9386 9.25122C91.9032 9.53133 91.2932 10.2523 90.8632 11.1779C90.2204 12.5662 90.1223 14.0691 90.1129 15.5792C90.1036 17.104 90.0966 18.6263 90.1199 20.1511C90.1269 20.6358 89.9727 20.799 89.5099 20.7746C88.8205 20.7405 88.1263 20.7527 87.4368 20.7698C87.1003 20.7771 86.9951 20.6455 86.9951 20.2997C87.0045 15.8277 87.0045 11.3557 86.9951 6.88614C86.9951 6.51591 87.1167 6.38194 87.4719 6.39168C88.1941 6.41117 88.9186 6.41117 89.6431 6.39168C90.0124 6.38194 90.127 6.55488 90.1153 6.90319C90.1036 7.23201 90.1129 7.56327 90.1129 8.04067C90.3864 7.6607 90.5476 7.38546 90.7557 7.15407C91.3586 6.48911 92.1556 6.23823 92.9947 6.1335C93.9272 6.01658 94.8527 6.09209 95.7572 6.37707C96.1452 6.49886 96.3485 6.71076 96.2527 7.17355C96.0844 7.9676 95.9512 8.76652 95.797 9.6044Z" fill="#00B070"/>
<path d="M172.156 7.88465C173.29 6.08708 174.966 5.98722 176.721 6.15772C177.177 6.20156 177.623 6.3745 178.062 6.51821C178.17 6.55474 178.331 6.72768 178.317 6.81293C178.172 7.69953 177.999 8.57883 177.829 9.46056C177.824 9.48735 177.784 9.50684 177.761 9.52876C177.235 9.39723 176.716 9.19507 176.186 9.14392C174.318 8.96367 173.094 10.1133 172.629 11.9499C172.353 13.0338 172.227 14.1786 172.177 15.3014C172.103 16.9407 172.147 18.5848 172.166 20.2265C172.17 20.6405 172.047 20.7891 171.645 20.7745C170.953 20.7477 170.261 20.7477 169.569 20.7745C169.167 20.7891 169.032 20.6381 169.036 20.224C169.05 18.4143 169.041 16.6045 169.041 14.7948C169.041 12.2154 169.039 9.6335 169.041 7.05406C169.041 6.41103 169.057 6.39642 169.658 6.39642C170.35 6.39398 171.042 6.40616 171.733 6.39398C172.044 6.38911 172.173 6.51821 172.159 6.83972C172.145 7.18803 172.156 7.53634 172.156 7.88465Z" fill="#00B070"/>
<path d="M47.0002 13.5529C47.0002 11.3778 47.0166 9.20023 46.9885 7.02513C46.9815 6.50632 47.1381 6.35287 47.6195 6.38697C48.2272 6.42838 48.8419 6.42107 49.4519 6.38941C49.9147 6.36505 50.0666 6.53555 50.0642 7.01782C50.0479 9.62892 50.0572 12.24 50.0572 14.8511C50.0572 16.6243 50.0455 18.4 50.0642 20.1732C50.0689 20.6311 49.9357 20.7991 49.4846 20.7748C48.8115 20.7407 48.1337 20.748 47.4606 20.7723C47.0984 20.7845 46.9908 20.6506 46.9932 20.2803C47.0072 18.0395 47.0002 15.7962 47.0002 13.5529Z" fill="#00B070"/>
<path d="M46.5776 2.01458C46.5799 0.869795 47.3886 -0.0168082 48.4637 0.000241819C49.7679 0.0197276 50.4036 0.879538 50.4363 2.00241C50.4667 3.09361 49.6487 4.00701 48.4684 4.02406C47.426 4.04111 46.4327 2.984 46.5776 2.01458Z" fill="#00B070"/>
</svg>